<svg xmlns="http://www.w3.org/2000/svg" style="display: none;">
  <!-- Industry Icons -->
  <symbol id="icon-home-services" viewBox="0 0 64 64">
    <defs>
      <linearGradient id="grad-home" x1="0%" y1="0%" x2="100%" y2="100%">
        <stop offset="0%" style="stop-color:#7c3aed;stop-opacity:1" />
        <stop offset="100%" style="stop-color:#5b21b6;stop-opacity:1" />
      </linearGradient>
    </defs>
    <path fill="url(#grad-home)" d="M32 8L8 26v28h16V40h16v14h16V26L32 8zm0 6.8L48 25v24h-8V36H24v13h-8V25l16-10.2z"/>
    <path fill="url(#grad-home)" d="M38 18h8v8l-8-8z"/>
  </symbol>

  <symbol id="icon-medical" viewBox="0 0 64 64">
    <defs>
      <linearGradient id="grad-medical" x1="0%" y1="0%" x2="100%" y2="100%">
        <stop offset="0%" style="stop-color:#7c3aed;stop-opacity:1" />
        <stop offset="100%" style="stop-color:#5b21b6;stop-opacity:1" />
      </linearGradient>
    </defs>
    <path fill="url(#grad-medical)" d="M32 8C18.7 8 8 18.7 8 32s10.7 24 24 24 24-10.7 24-24S45.3 8 32 8zm0 4c11.1 0 20 8.9 20 20s-8.9 20-20 20-20-8.9-20-20 8.9-20 20-20z"/>
    <path fill="url(#grad-medical)" d="M28 20h8v24h-8z"/>
    <path fill="url(#grad-medical)" d="M20 28h24v8H20z"/>
  </symbol>

  <symbol id="icon-restaurant" viewBox="0 0 64 64">
    <defs>
      <linearGradient id="grad-restaurant" x1="0%" y1="0%" x2="100%" y2="100%">
        <stop offset="0%" style="stop-color:#7c3aed;stop-opacity:1" />
        <stop offset="100%" style="stop-color:#5b21b6;stop-opacity:1" />
      </linearGradient>
    </defs>
    <path fill="url(#grad-restaurant)" d="M14 8v20c0 2.2 1.8 4 4 4v20h4V32c2.2 0 4-1.8 4-4V8h-4v16h-2V8h-2v16h-2V8h-2z"/>
    <path fill="url(#grad-restaurant)" d="M40 8c-4.4 0-8 3.6-8 8v8h4v28h8V24h4v-8c0-4.4-3.6-8-8-8zm4 12h-8v-4c0-2.2 1.8-4 4-4s4 1.8 4 4v4z"/>
  </symbol>

  <symbol id="icon-local-business" viewBox="0 0 64 64">
    <defs>
      <linearGradient id="grad-local" x1="0%" y1="0%" x2="100%" y2="100%">
        <stop offset="0%" style="stop-color:#7c3aed;stop-opacity:1" />
        <stop offset="100%" style="stop-color:#5b21b6;stop-opacity:1" />
      </linearGradient>
    </defs>
    <path fill="url(#grad-local)" d="M48 14H16c-2.2 0-4 1.8-4 4v28c0 2.2 1.8 4 4 4h32c2.2 0 4-1.8 4-4V18c0-2.2-1.8-4-4-4zm0 32H16V18h32v28z"/>
    <path fill="url(#grad-local)" d="M20 24h24v4H20zm0 8h24v4H20zm0 8h16v4H20z"/>
  </symbol>

  <!-- Social Media Icons -->
  <symbol id="icon-facebook" viewBox="0 0 24 24">
    <defs>
      <linearGradient id="grad-facebook" x1="0%" y1="0%" x2="100%" y2="100%">
        <stop offset="0%" style="stop-color:#7c3aed;stop-opacity:1" />
        <stop offset="100%" style="stop-color:#5b21b6;stop-opacity:1" />
      </linearGradient>
    </defs>
    <path fill="url(#grad-facebook)" d="M12 2C6.477 2 2 6.477 2 12c0 4.991 3.657 9.128 8.438 9.879V14.89h-2.54V12h2.54V9.797c0-2.506 1.492-3.89 3.777-3.89 1.094 0 2.238.195 2.238.195v2.46h-1.26c-1.243 0-1.63.771-1.63 1.562V12h2.773l-.443 2.89h-2.33v6.989C18.343 21.129 22 16.99 22 12c0-5.523-4.477-10-10-10z"/>
  </symbol>

  <symbol id="icon-twitter" viewBox="0 0 24 24">
    <defs>
      <linearGradient id="grad-twitter" x1="0%" y1="0%" x2="100%" y2="100%">
        <stop offset="0%" style="stop-color:#7c3aed;stop-opacity:1" />
        <stop offset="100%" style="stop-color:#5b21b6;stop-opacity:1" />
      </linearGradient>
    </defs>
    <path fill="url(#grad-twitter)" d="M18.244 2.25h3.308l-7.227 8.26 8.502 11.24H16.17l-5.214-6.817L4.99 21.75H1.68l7.73-8.835L1.254 2.25H8.08l4.713 6.231zm-1.161 17.52h1.833L7.084 4.126H5.117z"/>
  </symbol>

  <symbol id="icon-linkedin" viewBox="0 0 24 24">
    <defs>
      <linearGradient id="grad-linkedin" x1="0%" y1="0%" x2="100%" y2="100%">
        <stop offset="0%" style="stop-color:#7c3aed;stop-opacity:1" />
        <stop offset="100%" style="stop-color:#5b21b6;stop-opacity:1" />
      </linearGradient>
    </defs>
    <path fill="url(#grad-linkedin)" d="M20.447 20.452h-3.554v-5.569c0-1.328-.027-3.037-1.852-3.037-1.853 0-2.136 1.445-2.136 2.939v5.667H9.351V9h3.414v1.561h.046c.477-.9 1.637-1.85 3.37-1.85 3.601 0 4.267 2.37 4.267 5.455v6.286zM5.337 7.433c-1.144 0-2.063-.926-2.063-2.065 0-1.138.92-2.063 2.063-2.063 1.14 0 2.064.925 2.064 2.063 0 1.139-.925 2.065-2.064 2.065zm1.782 13.019H3.555V9h3.564v11.452zM22.225 0H1.771C.792 0 0 .774 0 1.729v20.542C0 23.227.792 24 1.771 24h20.451C23.2 24 24 23.227 24 22.271V1.729C24 .774 23.2 0 22.222 0h.003z"/>
  </symbol>

  <symbol id="icon-instagram" viewBox="0 0 24 24">
    <defs>
      <linearGradient id="grad-instagram" x1="0%" y1="0%" x2="100%" y2="100%">
        <stop offset="0%" style="stop-color:#7c3aed;stop-opacity:1" />
        <stop offset="100%" style="stop-color:#5b21b6;stop-opacity:1" />
      </linearGradient>
    </defs>
    <path fill="url(#grad-instagram)" d="M12 2.163c3.204 0 3.584.012 4.85.07 3.252.148 4.771 1.691 4.919 4.919.058 1.265.069 1.645.069 4.849 0 3.205-.012 3.584-.069 4.849-.149 3.225-1.664 4.771-4.919 4.919-1.266.058-1.644.07-4.85.07-3.204 0-3.584-.012-4.849-.07-3.26-.149-4.771-1.699-4.919-4.92-.058-1.265-.07-1.644-.07-4.849 0-3.204.013-3.583.07-4.849.149-3.227 1.664-4.771 4.919-4.919 1.266-.057 1.645-.069 4.849-.069zM12 0C8.741 0 8.333.014 7.053.072 2.695.272.273 2.69.073 7.052.014 8.333 0 8.741 0 12c0 3.259.014 3.668.072 4.948.2 4.358 2.618 6.78 6.98 6.98C8.333 23.986 8.741 24 12 24c3.259 0 3.668-.014 4.948-.072 4.354-.2 6.782-2.618 6.979-6.98.059-1.28.073-1.689.073-4.948 0-3.259-.014-3.667-.072-4.947-.196-4.354-2.617-6.78-6.979-6.98C15.668.014 15.259 0 12 0zm0 5.838a6.162 6.162 0 100 12.324 6.162 6.162 0 000-12.324zM12 16a4 4 0 110-8 4 4 0 010 8zm6.406-11.845a1.44 1.44 0 100 2.881 1.44 1.44 0 000-2.881z"/>
  </symbol>

  <!-- Contact Icons -->
  <symbol id="icon-phone" viewBox="0 0 24 24">
    <defs>
      <linearGradient id="grad-phone" x1="0%" y1="0%" x2="100%" y2="100%">
        <stop offset="0%" style="stop-color:#7c3aed;stop-opacity:1" />
        <stop offset="100%" style="stop-color:#5b21b6;stop-opacity:1" />
      </linearGradient>
    </defs>
    <path fill="url(#grad-phone)" d="M6.62 10.79c1.44 2.83 3.76 5.14 6.59 6.59l2.2-2.2c.27-.27.67-.36 1.02-.24 1.12.37 2.33.57 3.57.57.55 0 1 .45 1 1V20c0 .55-.45 1-1 1-9.39 0-17-7.61-17-17 0-.55.45-1 1-1h3.5c.55 0 1 .45 1 1 0 1.25.2 2.45.57 3.57.11.35.03.74-.25 1.02l-2.2 2.2z"/>
  </symbol>

  <symbol id="icon-email" viewBox="0 0 24 24">
    <defs>
      <linearGradient id="grad-email" x1="0%" y1="0%" x2="100%" y2="100%">
        <stop offset="0%" style="stop-color:#7c3aed;stop-opacity:1" />
        <stop offset="100%" style="stop-color:#5b21b6;stop-opacity:1" />
      </linearGradient>
    </defs>
    <path fill="url(#grad-email)" d="M20 4H4c-1.1 0-1.99.9-1.99 2L2 18c0 1.1.9 2 2 2h16c1.1 0 2-.9 2-2V6c0-1.1-.9-2-2-2zm0 4l-8 5-8-5V6l8 5 8-5v2z"/>
  </symbol>

  <!-- Value Icons -->
  <symbol id="icon-creativity" viewBox="0 0 24 24">
    <defs>
      <linearGradient id="grad-creativity" x1="0%" y1="0%" x2="100%" y2="100%">
        <stop offset="0%" style="stop-color:#7c3aed;stop-opacity:1" />
        <stop offset="100%" style="stop-color:#5b21b6;stop-opacity:1" />
      </linearGradient>
    </defs>
    <path fill="url(#grad-creativity)" d="M17.66 11.2c-.23-.3-.51-.56-.77-.82-.67-.6-1.43-1.03-2.07-1.66C13.33 7.26 13 4.85 13.95 3c-.95.23-1.78.75-2.49 1.32-2.59 2.08-3.61 5.75-2.39 8.9.04.1.08.2.08.33 0 .22-.15.42-.35.5-.23.1-.47.04-.66-.12a.58.58 0 0 1-.14-.17c-1.13-1.43-1.31-3.48-.55-5.12C5.78 10 4.87 12.3 5 14.47c.06.5.12 1 .29 1.5.14.6.41 1.2.71 1.73 1.08 1.73 2.95 2.97 4.96 3.22 2.14.27 4.43-.12 6.07-1.6 1.83-1.66 2.47-4.32 1.53-6.6l-.13-.26c-.21-.46-.77-1.26-.77-1.26m-3.16 6.3c-.28.24-.74.5-1.1.6-1.12.4-2.24-.16-2.9-.82 1.48-.28 2.93-.8 3.6-2.2.25-.52.37-1.1.34-1.64-.02-.55-.17-1.13-.34-1.64-.16-.5-.43-1-.77-1.42.83.13 1.58.48 2.23.98.66.5 1.25 1.12 1.7 1.85.09.14.15.3.2.45.08.23.12.47.14.72.02.37-.02.75-.13 1.1-.18.6-.47 1.13-.85 1.58-.43.5-.93.89-1.51 1.14z"/>
  </symbol>

  <symbol id="icon-performance" viewBox="0 0 24 24">
    <defs>
      <linearGradient id="grad-performance" x1="0%" y1="0%" x2="100%" y2="100%">
        <stop offset="0%" style="stop-color:#7c3aed;stop-opacity:1" />
        <stop offset="100%" style="stop-color:#5b21b6;stop-opacity:1" />
      </linearGradient>
    </defs>
    <path fill="url(#grad-performance)" d="M7 2v11h3v9l7-12h-4l4-8z"/>
  </symbol>

  <symbol id="icon-growth" viewBox="0 0 24 24">
    <defs>
      <linearGradient id="grad-growth" x1="0%" y1="0%" x2="100%" y2="100%">
        <stop offset="0%" style="stop-color:#7c3aed;stop-opacity:1" />
        <stop offset="100%" style="stop-color:#5b21b6;stop-opacity:1" />
      </linearGradient>
    </defs>
    <path fill="url(#grad-growth)" d="M16 6l2.29 2.29-4.88 4.88-4-4L2 16.59 3.41 18l6-6 4 4 6.3-6.29L22 12V6z"/>
  </symbol>

  <symbol id="icon-partnership" viewBox="0 0 24 24">
    <defs>
      <linearGradient id="grad-partnership" x1="0%" y1="0%" x2="100%" y2="100%">
        <stop offset="0%" style="stop-color:#7c3aed;stop-opacity:1" />
        <stop offset="100%" style="stop-color:#5b21b6;stop-opacity:1" />
      </linearGradient>
    </defs>
    <path fill="url(#grad-partnership)" d="M16 11c1.66 0 2.99-1.34 2.99-3S17.66 5 16 5c-1.66 0-3 1.34-3 3s1.34 3 3 3zm-8 0c1.66 0 2.99-1.34 2.99-3S9.66 5 8 5C6.34 5 5 6.34 5 8s1.34 3 3 3zm0 2c-2.33 0-7 1.17-7 3.5V19h14v-2.5c0-2.33-4.67-3.5-7-3.5zm8 0c-.29 0-.62.02-.97.05 1.16.84 1.97 1.97 1.97 3.45V19h6v-2.5c0-2.33-4.67-3.5-7-3.5z"/>
  </symbol>

  <symbol id="icon-innovation" viewBox="0 0 24 24">
    <defs>
      <linearGradient id="grad-innovation" x1="0%" y1="0%" x2="100%" y2="100%">
        <stop offset="0%" style="stop-color:#7c3aed;stop-opacity:1" />
        <stop offset="100%" style="stop-color:#5b21b6;stop-opacity:1" />
      </linearGradient>
    </defs>
    <path fill="url(#grad-innovation)" d="M20 2H4c-1.1 0-1.99.9-1.99 2L2 22l4-4h14c1.1 0 2-.9 2-2V4c0-1.1-.9-2-2-2zM9 11H7V9h2v2zm4 0h-2V9h2v2zm4 0h-2V9h2v2z"/>
  </symbol>

  <symbol id="icon-simplicity" viewBox="0 0 24 24">
    <defs>
      <linearGradient id="grad-simplicity" x1="0%" y1="0%" x2="100%" y2="100%">
        <stop offset="0%" style="stop-color:#7c3aed;stop-opacity:1" />
        <stop offset="100%" style="stop-color:#5b21b6;stop-opacity:1" />
      </linearGradient>
    </defs>
    <path fill="url(#grad-simplicity)" d="M9 21c0 .5.4 1 1 1h4c.6 0 1-.5 1-1v-1H9v1zm3-19C8.1 2 5 5.1 5 9c0 2.4 1.2 4.5 3 5.7V17c0 .5.4 1 1 1h6c.6 0 1-.5 1-1v-2.3c1.8-1.3 3-3.4 3-5.7 0-3.9-3.1-7-7-7z"/>
  </symbol>
</svg>
